<svg width="220" height="220" viewBox="0 0 220 220" fill="none" xmlns="http://www.w3.org/2000/svg">
<circle cx="105" cy="110" r="90" fill="#FF9DB4"/>
<rect x="57.6063" y="80.5723" width="100" height="25" rx="5" transform="rotate(41.6251 57.6063 80.5723)" fill="#773F57"/>
<rect x="209.127" y="60.6064" width="140.573" height="25" rx="5" transform="rotate(131.625 209.127 60.6064)" fill="#773F57"/>
<path fill-rule="evenodd" clip-rule="evenodd" d="M196.361 97.5541C199.099 94.4721 204.094 95.8645 204.503 99.9672C204.832 103.267 205 106.614 205 110C205 165.228 160.228 210 105 210C49.7715 210 5 165.228 5 110C5 54.7715 49.7715 10 105 10C130.594 10 153.942 19.6151 171.63 35.4302C173.616 37.2056 173.709 40.2448 171.94 42.2359L162.678 52.6587C160.757 54.8201 157.418 54.8939 155.249 52.9813C141.855 41.1675 124.264 34 105 34C63.0264 34 29 68.0264 29 110C29 151.974 63.0264 186 105 186C144.702 186 177.294 155.556 180.705 116.74C180.803 115.631 181.238 114.572 181.977 113.741L196.361 97.5541Z" fill="#C15C7B"/>
</svg>
